<?xml version="1.0" encoding="UTF-8"?>
<svg width="163px" height="182px" viewBox="0 0 163 182" version="1.1" xmlns="http://www.w3.org/2000/svg" xmlns:xlink="http://www.w3.org/1999/xlink">
    <!-- Generator: Sketch 58 (84663) - https://sketch.com -->
    <title>UPenn_shield_with_banner</title>
    <desc>Created with Sketch.</desc>
    <g id="Page-1" stroke="none" stroke-width="1" fill="none" fill-rule="evenodd">
        <g id="UPenn_shield_with_banner" transform="translate(0.000000, -1.000000)">
            <g id="g4754" transform="translate(82.258744, 91.768385) scale(-1, 1) rotate(-180.000000) translate(-82.258744, -91.768385) translate(0.758744, 0.768385)">
                <g id="g4756-Clipped" transform="translate(-0.000000, -0.000000)">
                    <g id="g4756" transform="translate(0.244499, 0.122249)">
                        <g id="g4762" transform="translate(-0.000000, -0.000000)">
                            <g id="g4764-Clipped" transform="translate(-0.000000, -0.000000)">
                                <g id="g4764" transform="translate(-0.000000, -0.000000)">
                                    <path d="M0.0835941782,179.220506 L161.487572,179.220506 C161.452131,179.049722 161.452131,99.8587054 161.487572,98.5185396 C161.553451,37.4876776 89.2207741,0.38910768 78.6618244,0.295751787 C68.1042021,0.57980147 1.50074548,30.8487906 0.0835941782,98.5185396 C0.234910365,99.572886 0.255262834,179.049722 0.0835941782,179.220506" id="path4774" fill="#FFFFFF" fill-rule="nonzero"></path>
                                    <path d="M0.0835941782,180.220506 L161.487572,180.220506 C161.452131,180.049722 161.452131,100.858705 161.487572,99.5185396 C161.553451,38.4876776 89.2207741,1.38910768 78.6618244,1.29575179 C68.1042021,1.57980147 1.50074548,31.8487906 0.0835941782,99.5185396 C0.234910365,100.572886 0.255262834,180.049722 0.0835941782,180.220506 Z" id="path4776" stroke="#011F5B" stroke-width="0.852149051"></path>
                                    <path d="M6.45395259,173.319556 L155.116319,173.319556 C155.253919,173.492245 155.253919,100.400775 155.116319,98.988048 C154.249126,38.4823683 86.3050616,6.61792257 77.5999564,7.1364681 C68.8700743,7.21079886 6.26986003,38.3960915 6.45395259,99.5185396 C6.45878404,100.525544 6.47205739,173.492245 6.45395259,173.319556" id="path4778" fill="#FFFFFF" fill-rule="nonzero"></path>
                                    <path d="M6.45395259,173.319556 L155.116319,173.319556 C155.253919,173.492245 155.253919,100.400775 155.116319,98.988048 C154.249126,38.4823683 86.3050616,6.61792257 77.5999564,7.1364681 C68.8700743,7.21079886 6.26986003,38.3960915 6.45395259,99.5185396 C6.45878404,100.525544 6.47205739,173.492245 6.45395259,173.319556 L6.45395259,173.319556 Z" id="path4780" stroke="#011F5B" stroke-width="0.852149051"></path>
                                    <path d="M6.45435959,128.189686 C6.72026903,128.087213 6.51408966,173.492245 6.45435959,173.319249 L155.116319,173.319249 C155.18888,173.492245 155.18888,149.140073 155.116319,128.189686 L6.45435959,128.189686" id="path4882" fill="#990000" fill-rule="nonzero"></path>
                                    <path d="M6.45435959,128.189686 C6.72026903,128.087213 6.51408966,173.492245 6.45435959,173.319249 L155.116319,173.319249 C155.18888,173.492245 155.18888,149.140073 155.116319,128.189686 L6.45435959,128.189686 Z" id="path4884" stroke="#990000" stroke-width="0.852149051"></path>
                                    <path d="M14.9501883,62.3536029 C20.5541965,50.1239809 27.624025,40.4450543 37.7799073,32.0899231 L80.7855604,76.1574441 L122.729345,33.1517911 C131.102617,41.0923513 139.471906,50.6031488 145.559949,61.8231113 L80.7855604,123.941503 L14.9501883,61.8231113 L14.9501883,62.3536029" id="path4886" fill="#011F5B" fill-rule="nonzero"></path>
                                    <path d="M14.9501883,62.3536029 C20.5541965,50.1239809 27.624025,40.4450543 37.7799073,32.0899231 L80.7855604,76.1574441 L122.729345,33.1517911 C131.102617,41.0923513 139.471906,50.6031488 145.559949,61.8231113 L80.7855604,123.941503 L14.9501883,61.8231113 L14.9501883,62.3536029 L14.9501883,62.3536029 Z" id="path4888" stroke="#011F5B" stroke-width="0.851706606"></path>
                                    <path d="M6.45435959,128.18986 L155.116319,128.18986" id="path4890" stroke="#011F5B" stroke-width="0.852149051"></path>
                                    <path d="M117.950497,162.169635 L122.198854,162.169635 C124.949977,162.939489 126.031312,164.658388 129.100111,164.82342 C131.259242,164.658388 132.289697,163.205399 133.878959,163.231503 C135.25629,163.204956 137.341976,164.755284 139.719233,164.82342 C141.967296,164.755284 143.123405,163.351406 144.497196,162.699684 C146.014783,162.115657 147.799163,162.146628 149.806536,162.169635 C149.634425,160.790976 149.683979,159.985284 149.806536,158.983146 C149.683979,157.685455 151.242713,158.144713 151.399338,156.328919 C151.242713,154.271107 149.231358,154.659131 149.276045,153.673806 L149.276045,146.240731 C149.258347,145.554056 151.117501,145.433268 150.869289,144.116995 C151.117501,141.945917 149.044646,142.667987 149.276045,140.931833 C149.280469,139.815987 149.181804,137.249363 149.276045,137.214853 C145.185198,137.250248 119.480029,137.013983 118.481874,137.214853 C118.298259,139.798731 118.722564,139.635912 119.01325,140.931833 C118.892462,142.019363 116.504144,142.672854 116.358138,144.648813 C116.504144,145.700063 117.936339,145.627502 117.950497,146.772549 L117.950497,154.205183 C117.985893,155.117947 115.825876,155.602866 115.826761,156.858968 C115.990908,158.633172 117.911562,158.422126 117.950497,159.514523 C117.910677,160.009176 117.96377,161.801078 117.950497,162.169635" id="path4892" fill="#FFFFFF" fill-rule="nonzero"></path>
                                    <path d="M117.950497,162.169635 L122.198854,162.169635 C124.949977,162.939489 126.031312,164.658388 129.100111,164.82342 C131.259242,164.658388 132.289697,163.205399 133.878959,163.231503 C135.25629,163.204956 137.341976,164.755284 139.719233,164.82342 C141.967296,164.755284 143.123405,163.351406 144.497196,162.699684 C146.014783,162.115657 147.799163,162.146628 149.806536,162.169635 C149.634425,160.790976 149.683979,159.985284 149.806536,158.983146 C149.683979,157.685455 151.242713,158.144713 151.399338,156.328919 C151.242713,154.271107 149.231358,154.659131 149.276045,153.673806 L149.276045,146.240731 C149.258347,145.554056 151.117501,145.433268 150.869289,144.116995 C151.117501,141.945917 149.044646,142.667987 149.276045,140.931833 C149.280469,139.815987 149.181804,137.249363 149.276045,137.214853 C145.185198,137.250248 119.480029,137.013983 118.481874,137.214853 C118.298259,139.798731 118.722564,139.635912 119.01325,140.931833 C118.892462,142.019363 116.504144,142.672854 116.358138,144.648813 C116.504144,145.700063 117.936339,145.627502 117.950497,146.772549 L117.950497,154.205183 C117.985893,155.117947 115.825876,155.602866 115.826761,156.858968 C115.990908,158.633172 117.911562,158.422126 117.950497,159.514523 C117.910677,160.009176 117.96377,161.801078 117.950497,162.169635 Z" id="path4894" stroke="#011F5B" stroke-width="0.852149051"></path>
                                    <path d="M121.136986,162.169635 C121.229899,162.138664 121.279453,145.674843 121.136986,141.993701 C121.229899,141.80168 145.209975,141.752569 146.090441,141.993701 C146.265207,146.232324 146.24043,162.261221 146.090441,162.169635" id="path4896" stroke="#011F5B" stroke-width="0.852149051"></path>
                                    <path d="M133.878959,163.231503 L133.878959,141.993701" id="path4898" stroke="#011F5B" stroke-width="0.852149051"></path>
                                    <path d="M134.410336,144.648813 C135.205409,144.343969 137.144203,143.63119 139.187857,143.055569 C141.464236,142.321995 144.049885,142.839213 146.090441,142.524193 C146.567839,142.333941 134.150178,142.237931 134.410336,141.993701 C134.199732,144.634655 134.150178,144.391753 134.410336,144.648813" id="path4900" fill="#011F5B" fill-rule="nonzero"></path>
                                    <path d="M134.410336,144.648813 C135.205409,144.343969 137.144203,143.63119 139.187857,143.055569 C141.464236,142.321995 144.049885,142.839213 146.090441,142.524193 C146.567839,142.333941 134.150178,142.237931 134.410336,141.993701 C134.199732,144.634655 134.150178,144.391753 134.410336,144.648813 L134.410336,144.648813 Z" id="path4902" stroke="#011F5B" stroke-width="0.852149051"></path>
                                    <path d="M132.2866,141.46321 C132.365355,141.755223 132.989645,142.189262 133.878959,141.993701 C134.530238,142.189262 135.155413,141.755223 134.940827,141.46321 C135.155413,140.685834 134.530238,140.251353 133.878959,140.400457 C132.989645,140.251353 132.365355,140.685834 132.2866,141.46321" id="path4904" fill="#011F5B" fill-rule="nonzero"></path>
                                    <path d="M132.2866,141.46321 C132.365355,141.755223 132.989645,142.189262 133.878959,141.993701 C134.530238,142.189262 135.155413,141.755223 134.940827,141.46321 C135.155413,140.685834 134.530238,140.251353 133.878959,140.400457 C132.989645,140.251353 132.365355,140.685834 132.2866,141.46321 Z" id="path4906" stroke="#011F5B" stroke-width="0.852149051"></path>
                                    <path d="M132.817091,144.648813 C132.021133,144.343969 130.081896,143.63119 128.038243,143.055569 C125.762306,142.321995 123.176657,142.839213 121.136986,142.524193 C120.659588,142.333941 133.076364,142.237931 132.817091,141.993701 C133.026368,144.634655 133.076364,144.391753 132.817091,144.648813" id="path4908" fill="#011F5B" fill-rule="nonzero"></path>
                                    <path d="M132.817091,144.648813 C132.021133,144.343969 130.081896,143.63119 128.038243,143.055569 C125.762306,142.321995 123.176657,142.839213 121.136986,142.524193 C120.659588,142.333941 133.076364,142.237931 132.817091,141.993701 C133.026368,144.634655 133.076364,144.391753 132.817091,144.648813 L132.817091,144.648813 Z" id="path4910" stroke="#011F5B" stroke-width="0.852149051"></path>
                                    <path d="M50.5218806,135.091559 C51.0890951,133.521764 52.2704232,132.480249 54.238861,132.436447 C57.8009856,132.480691 61.2697543,135.14421 63.2647388,136.684361 C64.9898318,137.807729 66.6737774,139.042593 66.4503427,141.46321 L66.4503427,140.400457 C66.3724724,140.61637 69.1873074,143.425011 76.006712,141.46321 C78.0516928,140.578762 86.3050616,135.943266 88.2181937,135.091559 C89.623399,134.538503 94.9986632,130.683037 103.615279,131.905955 C103.399366,132.169652 116.223192,133.934123 113.172534,147.302598 C111.310283,156.58067 111.944749,157.250532 112.641157,160.045899 C112.423032,160.422862 104.882442,162.117427 105.208524,151.55007 C101.814528,151.317787 97.6418296,148.848501 100.429675,142.524193 C101.462342,144.005941 102.946745,145.749617 105.208524,145.709797 C106.263755,145.749617 107.614097,143.906833 107.863636,142.524193 C107.899032,139.260718 104.579809,137.807729 100.429675,138.276721 C98.3687667,138.829777 96.4428037,141.144649 93.5284185,143.055569 C94.0651043,143.471467 94.5256895,145.168244 94.5902865,145.709797 C94.5256895,147.517627 93.0934951,148.291021 91.9351741,148.895843 C92.3134646,149.429432 92.7152046,150.204153 92.4665505,151.019579 C92.7152046,152.117285 90.8299465,152.019947 90.3419297,152.611938 C90.4025447,152.940233 90.4025447,152.698215 90.3419297,153.143315 C90.4025447,155.241389 90.7038497,156.305912 86.6258342,156.328919 C87.109869,158.121706 86.708129,159.35657 85.5644087,160.045899 L82.3788048,160.045899 C80.6497297,160.616211 82.4553477,161.217936 80.7855604,162.699684 C79.2949632,164.265055 76.8416057,162.828436 77.06858,162.699684 C76.8416057,164.160195 75.9244172,165.216754 74.4143525,165.353912 C73.4608835,165.216754 72.4052098,165.144193 71.7592401,164.82342 L70.6973721,163.761552 C69.0868724,163.861102 68.7099092,165.216754 66.9817191,165.353912 C65.241583,165.216754 64.5372105,163.861102 63.7952303,163.231503 C62.6771718,163.545639 62.5258556,164.538486 61.1410028,164.292929 C60.0123256,164.538486 59.7357975,163.545639 59.5477584,163.231503 C58.3036031,161.94797 58.3770489,160.768412 56.8930884,160.045899 L56.3625969,161.107767 C56.1515506,161.306425 56.1334104,161.373234 56.3625969,161.638259 C53.7539412,160.301632 48.4220367,148.147226 48.3981446,145.709797 C48.4202669,143.281216 50.486485,144.320519 50.5218806,141.993701 C50.486485,140.277014 48.27426,139.187272 48.3981446,137.746229 C48.27426,136.282621 50.1590757,135.483123 51.5837486,135.622493 L50.5218806,135.091559" id="path4912" fill="#FFFFFF"></path>
                                    <path d="M50.5218806,135.091559 C51.0890951,133.521764 52.2704232,132.480249 54.238861,132.436447 C57.8009856,132.480691 61.2697543,135.14421 63.2647388,136.684361 C64.9898318,137.807729 66.6737774,139.042593 66.4503427,141.46321 L66.4503427,140.400457 C66.3724724,140.61637 69.1873074,143.425011 76.006712,141.46321 C78.0516928,140.578762 86.3050616,135.943266 88.2181937,135.091559 C89.623399,134.538503 94.9986632,130.683037 103.615279,131.905955 C103.399366,132.169652 116.223192,133.934123 113.172534,147.302598 C111.310283,156.58067 111.944749,157.250532 112.641157,160.045899 C112.423032,160.422862 104.882442,162.117427 105.208524,151.55007 C101.814528,151.317787 97.6418296,148.848501 100.429675,142.524193 C101.462342,144.005941 102.946745,145.749617 105.208524,145.709797 C106.263755,145.749617 107.614097,143.906833 107.863636,142.524193 C107.899032,139.260718 104.579809,137.807729 100.429675,138.276721 C98.3687667,138.829777 96.4428037,141.144649 93.5284185,143.055569 C94.0651043,143.471467 94.5256895,145.168244 94.5902865,145.709797 C94.5256895,147.517627 93.0934951,148.291021 91.9351741,148.895843 C92.3134646,149.429432 92.7152046,150.204153 92.4665505,151.019579 C92.7152046,152.117285 90.8299465,152.019947 90.3419297,152.611938 C90.4025447,152.940233 90.4025447,152.698215 90.3419297,153.143315 C90.4025447,155.241389 90.7038497,156.305912 86.6258342,156.328919 C87.109869,158.121706 86.708129,159.35657 85.5644087,160.045899 L82.3788048,160.045899 C80.6497297,160.616211 82.4553477,161.217936 80.7855604,162.699684 C79.2949632,164.265055 76.8416057,162.828436 77.06858,162.699684 C76.8416057,164.160195 75.9244172,165.216754 74.4143525,165.353912 C73.4608835,165.216754 72.4052098,165.144193 71.7592401,164.82342 L70.6973721,163.761552 C69.0868724,163.861102 68.7099092,165.216754 66.9817191,165.353912 C65.241583,165.216754 64.5372105,163.861102 63.7952303,163.231503 C62.6771718,163.545639 62.5258556,164.538486 61.1410028,164.292929 C60.0123256,164.538486 59.7357975,163.545639 59.5477584,163.231503 C58.3036031,161.94797 58.3770489,160.768412 56.8930884,160.045899 L56.3625969,161.107767 C56.1515506,161.306425 56.1334104,161.373234 56.3625969,161.638259 C53.7539412,160.301632 48.4220367,148.147226 48.3981446,145.709797 C48.4202669,143.281216 50.486485,144.320519 50.5218806,141.993701 C50.486485,140.277014 48.27426,139.187272 48.3981446,137.746229 C48.27426,136.282621 50.1590757,135.483123 51.5837486,135.622493 L50.5218806,135.091559 Z" id="path4914" stroke="#011F5B" stroke-width="0.851706606"></path>
                                    <path d="M56.3625969,145.179305 C56.241367,145.307614 58.8566593,144.301052 59.0177093,143.585618 C58.8566593,143.021943 57.1669619,142.208729 55.8321054,141.46321 L54.7702374,141.46321 C55.1365818,142.886997 54.6330794,142.286157 54.7702374,143.585618 C54.6330794,144.862514 55.7998069,145.307614 56.3625969,145.179305" id="path4916" fill="#011F5B" fill-rule="nonzero"></path>
                                    <path d="M56.3625969,145.179305 C56.241367,145.307614 58.8566593,144.301052 59.0177093,143.585618 C58.8566593,143.021943 57.1669619,142.208729 55.8321054,141.46321 L54.7702374,141.46321 C55.1365818,142.886997 54.6330794,142.286157 54.7702374,143.585618 C54.6330794,144.862514 55.7998069,145.307614 56.3625969,145.179305 Z" id="path4918" stroke="#011F5B" stroke-width="0.852149051"></path>
                                    <path d="M65.9198511,149.958153 C67.1511755,150.417854 66.5224612,152.088968 68.5740786,152.080605 C70.6447212,152.089411 71.3738705,150.733759 73.3524845,150.488202 C74.3152448,150.733759 75.1448292,151.894735 76.5380885,152.080605 C78.1857536,151.894735 80.0714541,149.959038 79.7236924,147.833975 C79.7701491,147.634432 84.7976515,149.28077 84.5025407,144.116995 C88.6177216,145.212488 88.2150966,141.895036 88.7495702,140.400457 C89.0199041,138.724033 91.6338691,139.982346 91.4037977,136.684361" id="path4920" stroke="#011F5B" stroke-width="0.852149051"></path>
                                    <path d="M12.2950759,162.169635 L16.0120563,162.169635 C19.1445668,162.808968 20.2259023,164.528752 23.4451321,164.292929 C25.4538323,164.528752 26.4842867,163.075762 28.223538,163.231503 C29.4504379,163.075762 31.537451,164.625647 34.062927,164.82342 C36.161886,164.625647 37.3188796,163.220442 38.8417753,162.699684 C40.2093728,161.98602 41.9937534,162.016107 43.6197387,162.169635 C43.8290152,160.660455 43.8798964,159.854763 43.6197387,158.452655 C43.8798964,157.554934 45.4373028,158.015077 45.2125407,156.328919 C45.4373028,154.141471 43.4259478,154.528168 43.6197387,153.673806 L43.0892472,146.240731 C43.4520521,145.42442 45.3120908,145.303632 45.2125407,144.116995 C45.3120908,141.816281 43.2401209,142.538351 43.6197387,140.931833 C43.476829,139.685466 43.376394,137.119727 43.6197387,137.214853 C39.3797884,137.119727 14.2179418,137.09495 12.8264523,137.214853 C13.0361713,139.879699 12.9184809,139.504948 12.8264523,140.931833 C13.08661,141.888842 10.6987344,142.542333 10.7018315,144.116995 C10.6987344,145.569099 12.1322561,145.49698 12.2950759,146.772549 L12.2950759,154.205183 C12.18181,154.98831 10.0200238,155.472345 10.1717824,156.858968 C10.1850557,158.503536 12.1074792,158.29249 12.2950759,159.514523 C12.1074792,159.87954 12.1570331,161.671442 12.2950759,162.169635" id="path4922" fill="#FFFFFF" fill-rule="nonzero"></path>
                                    <path d="M12.2950759,162.169635 L16.0120563,162.169635 C19.1445668,162.808968 20.2259023,164.528752 23.4451321,164.292929 C25.4538323,164.528752 26.4842867,163.075762 28.223538,163.231503 C29.4504379,163.075762 31.537451,164.625647 34.062927,164.82342 C36.161886,164.625647 37.3188796,163.220442 38.8417753,162.699684 C40.2093728,161.98602 41.9937534,162.016107 43.6197387,162.169635 C43.8290152,160.660455 43.8798964,159.854763 43.6197387,158.452655 C43.8798964,157.554934 45.4373028,158.015077 45.2125407,156.328919 C45.4373028,154.141471 43.4259478,154.528168 43.6197387,153.673806 L43.0892472,146.240731 C43.4520521,145.42442 45.3120908,145.303632 45.2125407,144.116995 C45.3120908,141.816281 43.2401209,142.538351 43.6197387,140.931833 C43.476829,139.685466 43.376394,137.119727 43.6197387,137.214853 C39.3797884,137.119727 14.2179418,137.09495 12.8264523,137.214853 C13.0361713,139.879699 12.9184809,139.504948 12.8264523,140.931833 C13.08661,141.888842 10.6987344,142.542333 10.7018315,144.116995 C10.6987344,145.569099 12.1322561,145.49698 12.2950759,146.772549 L12.2950759,154.205183 C12.18181,154.98831 10.0200238,155.472345 10.1717824,156.858968 C10.1850557,158.503536 12.1074792,158.29249 12.2950759,159.514523 C12.1074792,159.87954 12.1570331,161.671442 12.2950759,162.169635 L12.2950759,162.169635 Z" id="path4924" stroke="#011F5B" stroke-width="0.852149051"></path>
                                    <path d="M15.4806798,162.169635 C15.4244893,162.010797 15.4762554,145.545207 15.4806798,141.46321 C15.4244893,141.672044 39.4045653,141.622932 40.4350197,141.46321 C40.4615664,146.102688 40.4350197,162.131585 40.4350197,162.169635" id="path4926" stroke="#011F5B" stroke-width="0.852149051"></path>
                                    <path d="M28.223538,163.231503 L28.223538,141.46321" id="path4928" stroke="#011F5B" stroke-width="0.852149051"></path>
                                    <path d="M28.223538,144.116995 C29.4008841,144.213448 31.3387932,143.500669 33.001059,143.055569 C35.6597109,142.191474 38.2444746,142.708692 39.9036433,142.524193 C40.762429,142.204305 28.3443255,142.106967 28.223538,141.993701 C28.3952066,144.503691 28.3443255,144.262117 28.223538,144.116995" id="path4930" fill="#011F5B" fill-rule="nonzero"></path>
                                    <path d="M28.223538,144.116995 C29.4008841,144.213448 31.3387932,143.500669 33.001059,143.055569 C35.6597109,142.191474 38.2444746,142.708692 39.9036433,142.524193 C40.762429,142.204305 28.3443255,142.106967 28.223538,141.993701 C28.3952066,144.503691 28.3443255,144.262117 28.223538,144.116995 L28.223538,144.116995 Z" id="path4932" stroke="#011F5B" stroke-width="0.852149051"></path>
                                    <path d="M26.6302936,140.931833 C26.5599448,141.625587 27.1846772,142.05874 27.6921616,141.993701 C28.7257131,142.05874 29.3504454,141.625587 29.285406,140.931833 C29.3504454,140.55487 28.7257131,140.121716 27.6921616,139.869965 C27.1846772,140.121716 26.5599448,140.55487 26.6302936,140.931833" id="path4934" fill="#011F5B" fill-rule="nonzero"></path>
                                    <path d="M26.6302936,140.931833 C26.5599448,141.625587 27.1846772,142.05874 27.6921616,141.993701 C28.7257131,142.05874 29.3504454,141.625587 29.285406,140.931833 C29.3504454,140.55487 28.7257131,140.121716 27.6921616,139.869965 C27.1846772,140.121716 26.5599448,140.55487 26.6302936,140.931833 Z" id="path4936" stroke="#011F5B" stroke-width="0.852149051"></path>
                                    <path d="M27.16167,144.116995 C26.2152802,144.213448 24.2773711,143.500669 22.3828217,143.055569 C19.9568958,142.191474 17.3721322,142.708692 15.4806798,142.524193 C14.8541777,142.204305 27.2709539,142.106967 27.16167,141.993701 C27.2214001,144.503691 27.2709539,144.262117 27.16167,144.116995" id="path4938" fill="#011F5B" fill-rule="nonzero"></path>
                                    <path d="M27.16167,144.116995 C26.2152802,144.213448 24.2773711,143.500669 22.3828217,143.055569 C19.9568958,142.191474 17.3721322,142.708692 15.4806798,142.524193 C14.8541777,142.204305 27.2709539,142.106967 27.16167,141.993701 C27.2214001,144.503691 27.2709539,144.262117 27.16167,144.116995 L27.16167,144.116995 Z" id="path4940" stroke="#011F5B" stroke-width="0.852149051"></path>
                                    <path d="M31.939191,67.1324512 C32.0670576,74.0058341 37.8781301,79.6040906 45.2125407,79.343048 C52.2168873,79.6040906 58.0279598,74.0058341 57.9558413,67.1324512 C58.0279598,60.193144 52.2168873,54.5944451 45.2125407,54.3891506 C37.8781301,54.5944451 32.0670576,60.193144 31.939191,67.1324512" id="path4942" fill="#FFFFFF" fill-rule="nonzero"></path>
                                    <path d="M31.939191,67.1324512 C32.0670576,74.0058341 37.8781301,79.6040906 45.2125407,79.343048 C52.2168873,79.6040906 58.0279598,74.0058341 57.9558413,67.1324512 C58.0279598,60.193144 52.2168873,54.5944451 45.2125407,54.3891506 C37.8781301,54.5944451 32.0670576,60.193144 31.939191,67.1324512 Z" id="path4944" stroke="#011F5B" stroke-width="0.852149051"></path>
                                    <path d="M67.5122107,97.3948036 C67.7542281,104.039 73.5653006,109.637699 80.7855604,109.606417 C87.9040578,109.637256 93.7151303,104.039 93.5284185,97.3948036 C93.7151303,90.2267523 87.9040578,84.6280534 80.7855604,84.6527364 C73.5653006,84.6262836 67.7542281,90.2267523 67.5122107,97.3948036" id="path4946" fill="#FFFFFF" fill-rule="nonzero"></path>
                                    <path d="M67.5122107,97.3948036 C67.7542281,104.039 73.5653006,109.637699 80.7855604,109.606417 C87.9040578,109.637256 93.7151303,104.039 93.5284185,97.3948036 C93.7151303,90.2267523 87.9040578,84.6280534 80.7855604,84.6527364 C73.5653006,84.6262836 67.7542281,90.2267523 67.5122107,97.3948036 Z" id="path4948" stroke="#011F5B" stroke-width="0.851706606"></path>
                                    <path d="M101.491543,67.1324512 C101.426946,74.0058341 107.238019,79.6040906 114.234402,79.343048 C121.575449,79.6040906 127.387849,74.0058341 127.507751,67.1324512 C127.387849,60.193144 121.575449,54.5944451 114.234402,54.3891506 C107.238019,54.5944451 101.426946,60.193144 101.491543,67.1324512" id="path4950" fill="#FFFFFF" fill-rule="nonzero"></path>
                                    <path d="M101.491543,67.1324512 C101.426946,74.0058341 107.238019,79.6040906 114.234402,79.343048 C121.575449,79.6040906 127.387849,74.0058341 127.507751,67.1324512 C127.387849,60.193144 121.575449,54.5944451 114.234402,54.3891506 C107.238019,54.5944451 101.426946,60.193144 101.491543,67.1324512 Z" id="path4952" stroke="#011F5B" stroke-width="0.852149051"></path>
                                    <path d="M93.5284185,143.585618 C90.4379403,147.394627 87.5129364,151.681919 87.1563258,152.080562 C85.3754847,152.573003 81.4793141,160.3211 71.229191,161.107767 C68.3665719,161.050249 58.3659878,160.079525 57.9558413,157.390344" id="path4954" stroke="#011F5B" stroke-width="0.852149051"></path>
                                    <path d="M66.9817191,140.931833 C66.7786369,141.178275 66.7989893,141.445069 66.9817191,141.46321 C66.7989893,142.14192 64.3482865,141.906097 63.7952303,141.993701 C63.363404,142.198996 64.8438249,142.791872 64.3266067,143.055569 C66.0950594,143.371917 69.9598163,145.073561 68.5740786,146.240731 C67.3016068,147.634432 66.5224612,148.966192 65.9198511,149.958153 C64.8137387,150.829328 63.656745,151.4107 61.6714943,151.55007 C60.3384076,151.4107 57.8531941,148.751606 56.8930884,147.833975 C57.576666,148.751606 59.7605744,150.635979 59.5477584,152.080562 C59.7605744,155.673215 56.9705163,158.698654 56.3625969,161.638259" id="path4956" stroke="#011F5B" stroke-width="0.852149051"></path>
                                    <path d="M51.5837486,135.622493 C54.4720295,135.625148 56.0307632,135.818496 57.4240224,136.684361 C58.7699401,137.246266 61.3591282,138.868712 62.2028708,140.400457" id="path4958" stroke="#011F5B" stroke-width="0.852149051"></path>
                                </g>
                            </g>
                        </g>
                    </g>
                </g>
            </g>
        </g>
    </g>
</svg>